<svg width="426" height="624" viewBox="0 0 426 624" fill="none" xmlns="http://www.w3.org/2000/svg">
<g clip-path="url(#clip0_44_421)">
<path d="M208.035 206.06C178.518 205.529 155.489 214.267 142.677 220.342C143.004 228.257 144.488 238.298 148.973 248.993C150.118 251.723 151.354 254.245 152.629 256.569C152.121 257.093 151.393 257.951 150.824 259.147C149.774 261.341 149.757 263.609 150.728 268.793C151.213 271.382 151.946 274.733 153.097 278.614C154.823 286.466 158.378 298.233 166.231 310.722C170.394 317.339 178.169 329.411 192.668 338.752C213.276 352.031 234.856 351.653 243.702 350.976C251.871 349.465 263.278 346.176 274.776 338.482C282.212 333.506 298.522 322.591 296.919 311.518C295.735 303.338 285.749 301.753 283.549 291.148C282.234 284.796 284.508 279.031 286.251 275.602C288.615 272.928 291.08 269.763 293.444 266.074C298.798 257.714 301.67 249.676 303.283 243.454C293.049 234.558 258.686 206.973 208.035 206.06V206.06Z" fill="#1C1100"/>
<path d="M303.097 235.771C283.594 219.299 265.089 210.837 252.864 206.353C211.031 191.021 169.21 195.375 146.869 208.784C140.984 212.315 137.013 216.14 134.09 220.495C124.392 234.947 128.167 252.468 129.707 258.363L124.223 264.404C124.223 264.404 121.453 266.418 122.711 283.29C122.711 283.29 114.655 293.867 115.405 306.204L96.991 316.262L39.4012 324.362V345.815C78.0238 429.702 116.646 513.589 155.275 597.476C186.936 598.774 218.596 600.071 250.257 601.368L400.466 345.815V322.19L323.728 306.666C323.728 306.666 339.322 290.719 325.302 272.132C325.302 272.132 331.734 270.638 329.878 255.271C328.84 252.592 327.001 248.925 323.706 245.434C316.078 237.339 306.205 236.041 303.097 235.765C302.127 240.154 300.615 245.315 298.206 250.872C294.505 259.406 289.946 265.955 286.133 270.587C286.133 270.587 276.113 288.508 284.903 297.985C285.867 299.13 287.436 300.896 289.534 302.898C292.519 305.741 293.563 306.176 294.296 307.36C296.936 311.636 291.718 319.426 290.426 321.344C280.722 335.808 252.102 345.877 245.496 348.122C237.507 348.906 224.12 349.081 209.181 343.496C181.102 333.01 167.98 309.837 164.493 303.147C164.493 303.147 144.691 258.408 155.122 255.915C153.605 253.043 152.093 250.172 150.575 247.295C150.045 245.648 149.249 243.132 148.336 240.046C144.465 226.982 144.505 224.105 145.74 221.866C147.207 219.203 149.994 218.12 151.675 217.499C182.366 206.206 199.099 206.138 199.099 206.138C218.794 206.138 233.27 210.234 248.723 214.623C262.494 218.532 281.439 224.957 303.097 235.765V235.771Z" fill="#35272E"/>
<path d="M131.095 259.976C132.454 268.928 133.814 277.886 135.179 286.838C135.856 291.289 136.544 295.785 138.169 299.982C140.33 305.566 144.054 310.401 148.025 314.885C158.677 326.923 171.455 337.071 185.587 344.726C178.614 345.2 171.777 342.413 165.943 338.572C160.11 334.73 155.043 329.851 149.588 325.485C142.609 319.9 134.451 314.423 132.138 305.792C131.185 302.221 131.36 298.464 130.987 294.787C129.854 283.555 123.631 272.217 127.349 261.561C127.636 260.732 128.037 259.863 128.799 259.429C129.56 258.994 130.762 259.26 130.965 260.117" fill="#1C1100"/>
<path d="M116.584 307.18C117.402 315.709 124.737 321.965 131.698 326.963C140.652 333.388 149.938 339.35 159.5 344.828C154.259 346.554 148.668 343.959 143.76 341.426C139.106 339.029 134.451 336.626 130 333.873C126.249 331.549 122.576 328.909 120.009 325.321C116.426 320.312 115.349 314 114.362 307.924C114.294 307.507 114.237 307.044 114.469 306.695C114.7 306.345 115.36 306.305 115.479 306.706" fill="#1C1100"/>
<path d="M225.158 360.397C245.445 364.205 266.889 361.604 285.687 353.069C287.424 352.279 289.219 351.371 290.268 349.781C291.255 348.286 291.441 346.396 292.276 344.816C293.658 342.193 296.547 340.823 299.012 339.175C303.565 336.135 307.131 331.633 309.043 326.506C309.342 325.705 309.652 324.825 310.38 324.379C311.751 323.544 313.596 325.011 313.709 326.607C313.822 328.204 312.812 329.653 311.757 330.861C307.898 335.289 302.792 338.594 299.452 343.429C297.326 346.503 295.983 350.108 293.596 352.985C289.58 357.825 283.244 359.94 277.247 361.835C260.519 367.115 241.88 372.299 225.993 364.864C224.819 364.317 223.516 363.46 223.493 362.162C224.492 361.88 225.485 361.593 226.484 361.311" fill="#1C1100"/>
<path d="M51.8918 309.938L0 320.899C27.4861 415.114 54.9721 509.324 82.4638 603.54C108.331 606.885 134.198 610.236 160.07 613.581C144.144 512.371 128.212 411.154 112.285 309.944H51.8918V309.938Z" fill="#6E698D"/>
<path d="M82.2156 404.047C68.5233 379.21 61.5333 366.901 59.8973 364.644C54.9947 357.875 49.5674 351.191 47.2544 342.966C44.9413 334.742 46.8087 324.374 53.7761 320.21C56.9862 318.293 61.4092 317.328 62.4304 313.526C62.7971 312.166 62.5996 310.711 62.3401 309.323C61.7421 306.147 60.8112 303.045 59.57 300.095C56.7097 301.573 53.8889 303.152 51.2317 305.014C51.0455 305.194 50.8594 305.375 50.6788 305.561L50.7973 306.441C49.81 307.044 48.834 307.665 47.858 308.285C46.6112 309.476 45.3475 310.66 44.0668 311.805C43.5309 312.285 42.8652 312.358 42.3066 311.924C34.5494 317.181 27.0911 322.952 19.994 329.202C27.8471 337.867 39.0458 351.157 50.5547 368.717C63.8972 389.07 71.4457 405.677 74.8363 413.016C86.1647 437.565 104.269 474.096 135.388 531.905C131.151 520.257 101.431 438.885 82.2212 404.041L82.2156 404.047Z" fill="#464A6E"/>
<path d="M136.262 174.002C136.262 174.002 65.2117 203.143 59.4459 216.885L5.03235 233.633C5.03235 233.633 49.0822 300.162 50.4362 303.152C51.7902 306.136 22.6512 322.202 22.6512 322.202C30.651 330.646 39.1078 340.653 47.3672 352.37C62.8817 374.386 72.89 395.613 79.4512 413.027C104.579 466.442 129.707 519.856 154.835 573.271C145.927 516.646 137.729 458.386 130.418 398.541C126.294 364.791 122.565 331.481 119.202 298.622C130.091 267.157 140.985 235.697 151.873 204.232L136.268 174.007L136.262 174.002Z" fill="#6E698D"/>
<path d="M45.2347 334.911C51.1111 334.911 55.8748 331.034 55.8748 326.252C55.8748 321.47 51.1111 317.593 45.2347 317.593C39.3583 317.593 34.5945 321.47 34.5945 326.252C34.5945 331.034 39.3583 334.911 45.2347 334.911Z" fill="#EEE8D2"/>
<path d="M35.5762 329.879C35.9824 329.219 39.7848 332.491 45.2346 332.429C50.8876 332.367 54.69 328.757 55.1414 329.422C55.4911 329.935 53.3642 332.299 50.8199 333.625C48.3996 334.883 46.1824 334.911 45.2403 334.911C42.0697 334.911 39.8356 333.726 39.4068 333.495C37.3025 332.344 35.2772 330.375 35.5818 329.885L35.5762 329.879Z" fill="#B4B5B3"/>
<path d="M53.3417 226.034C69.9338 236.526 86.6894 247.148 100.444 261.155C101.194 261.917 101.939 262.701 102.447 263.643C103.101 264.867 103.304 266.271 103.496 267.648C104.353 273.802 105.211 279.951 106.068 286.105C102.04 278.326 97.9332 270.451 92.0377 263.97C85.7811 257.088 77.7869 252.079 70.0353 246.945C67.7166 245.411 65.3922 243.837 63.4797 241.818C62.2329 240.498 61.1779 239.014 60.1286 237.531C57.4657 233.762 54.7973 229.994 52.1344 226.226" fill="#464A6E"/>
<path d="M65.522 217.11C72.275 217.945 79.5979 215.621 85.6739 218.678C91.0278 221.375 93.6681 227.399 95.8966 232.967C91.6089 230.829 87.5074 228.313 83.6655 225.453C80.1959 222.875 76.6811 219.902 72.3879 219.395C71.079 219.237 69.7476 219.327 68.45 219.096C67.1524 218.865 65.8266 218.244 65.2061 217.082" fill="#464A6E"/>
<path d="M63.8295 302.712C75.8969 303.214 87.5808 298.882 98.881 294.617C98.7512 296.896 96.1899 298.098 94.0179 298.809C90.3 300.033 86.5878 301.257 82.87 302.481C77.3412 304.303 71.5867 306.148 65.8153 305.403C63.9987 305.166 61.8775 304.314 61.6236 302.503" fill="#464A6E"/>
<path d="M103.389 304.844C101.245 314.767 101.911 325.282 105.296 334.854C106.548 338.403 108.195 341.985 107.953 345.742C107.8 348.06 106.937 350.266 106.08 352.426C104.771 355.726 103.462 359.026 102.153 362.332C103.033 363.353 104.466 361.734 104.805 360.425C107.219 351.225 109.651 341.844 109.109 332.35C108.85 327.758 107.891 323.234 106.943 318.733C105.871 313.656 104.793 308.573 103.722 303.496" fill="#464A6E"/>
<path d="M374.103 316.865L425.994 327.82C400.714 426.549 375.44 525.277 350.159 624C312.942 620.096 275.724 616.193 238.511 612.289C263.577 513.815 288.649 415.34 313.715 316.86H374.103V316.865Z" fill="#6E698D"/>
<path d="M369.234 317.503C373.149 316.296 377.019 317.492 380.235 318.484C384.805 319.895 388.06 322.185 389.95 323.747C379.253 330.432 368.371 336.812 357.307 342.87C364.732 350.892 371.479 359.534 377.465 368.678C368.337 372.378 355.011 379.068 342.199 391.185C331.61 401.204 325.545 410.985 320.834 419.097C301.105 453.106 293.399 478.22 280.852 506.899C274.815 520.697 265.388 540.519 251.47 563.732C266.342 517.346 295.21 429.014 305.393 412.683C306.279 411.262 307.04 410.156 307.04 410.156C315.509 400.91 325.043 392.635 335.384 385.55C341.144 381.601 347.327 377.867 351.282 372.108C355.237 366.354 356.224 357.819 351.423 352.748C349.212 350.412 345.748 348.489 345.832 345.273C345.866 343.801 346.521 342.69 346.938 342.041C350.487 336.564 355.496 332.169 357.353 330.438C365.443 322.901 364.01 319.11 369.223 317.508L369.234 317.503Z" fill="#464A6E"/>
<path d="M323.661 187.546C323.661 187.546 380.167 239.55 380.794 254.437L426 289.038C426 289.038 361.584 336.129 359.276 338.459C356.969 340.789 378.712 365.97 378.712 365.97C369.014 370.308 357.296 376.586 345.059 385.674C329.754 397.046 318.713 409.05 311.131 418.679C303.633 435.038 294.076 456.773 283.803 482.693C259.814 543.21 248.204 585.466 246.466 584.981C243.521 584.169 285.777 465.737 296.378 310.316C299.227 268.567 299.125 233.92 298.533 210.459L323.666 187.54L323.661 187.546Z" fill="#6E698D"/>
<path d="M350.91 368.334C356.786 368.334 361.55 364.457 361.55 359.675C361.55 354.893 356.786 351.016 350.91 351.016C345.033 351.016 340.27 354.893 340.27 359.675C340.27 364.457 345.033 368.334 350.91 368.334Z" fill="#EEE8D2"/>
<path d="M341.251 363.302C341.658 362.642 345.46 365.914 350.91 365.852C356.563 365.79 360.365 362.179 360.817 362.845C361.166 363.358 359.039 365.722 356.495 367.048C354.075 368.305 351.858 368.334 350.915 368.334C347.745 368.334 345.511 367.149 345.082 366.918C342.978 365.767 340.952 363.798 341.257 363.308L341.251 363.302Z" fill="#B4B5B3"/>
<path d="M373.403 260.016C362.092 264.376 354.825 275.348 349.308 286.139C343.79 296.93 338.966 308.573 329.878 316.6C327.948 318.304 325.844 319.827 324.157 321.773C319.554 327.076 318.752 334.589 318.16 341.584C321.489 331.763 332.242 326.737 338.6 318.546C343.023 312.849 345.189 305.775 348.016 299.136C354.379 284.176 364.297 271.044 374.114 258.086" fill="#464A6E"/>
<path d="M334.882 270.367C336.546 264.427 338.882 258.679 341.838 253.263C342.481 252.079 343.198 250.871 344.32 250.127C345.246 249.518 346.357 249.275 347.44 249.049C354.966 247.476 362.492 245.902 370.024 244.328C368.777 246.703 365.764 247.352 363.434 248.683C359.615 250.871 357.511 255.119 354.238 258.058C348.286 263.406 338.323 264.703 335.339 272.132" fill="#464A6E"/>
<path d="M155.258 255.429C149.086 258.188 156.821 301.595 182.422 331.188C184.397 333.467 185.57 334.826 187.556 336.62C206.461 353.724 236.565 354.073 258.494 345.533C277.873 337.98 298.138 320.65 295.323 309.154C293.642 302.283 284.818 302.001 282.042 292.553C278.736 281.305 288.124 271.117 285.664 269.312C283.803 267.947 277.631 273.215 263.933 285.609C244.593 303.113 245.992 302.475 244.012 303.716C225.406 315.387 195.093 312.922 184.245 298.284C180.871 293.737 182.445 292.147 178.208 282.89C171.692 268.663 159.359 253.596 155.269 255.424L155.258 255.429Z" fill="#FFD1AB"/>
<path d="M154.739 255.954C159.884 255.305 164.567 258.882 168.126 262.65C173.277 268.11 177.497 274.445 180.549 281.305C182.315 285.27 183.72 289.467 186.355 292.919C190.456 298.29 196.978 301.161 203.336 303.457C208.594 305.358 214.004 307.027 219.584 307.4C230.698 308.144 241.637 303.632 250.726 297.19C259.814 290.748 267.38 282.433 275.131 274.434C275.978 273.565 275.876 273.695 276.57 273.328C277.743 272.708 281.021 270.451 281.021 270.451C282.172 269.605 284.085 268.471 287.368 267.332C286.798 269.007 286.223 270.683 285.653 272.358C285.315 273.12 284.841 274.22 284.305 275.545C283.453 277.644 282.815 279.381 282.663 279.832C281.433 283.358 281.495 288.316 281.636 291.131C277.693 296.214 262.319 314.784 235.205 319.849C228.876 321.028 206.845 325.146 186.061 311.963C157.108 293.602 156.093 257.861 156.059 254.798" fill="#F19D73"/>
<path d="M317.568 174.78C322.081 166.161 325.878 158.918 329.274 159.521C334.267 160.413 338.95 178.407 332.749 191.664C329.528 198.551 325.438 199.73 323.627 207.735C321.827 215.666 324.501 220.421 321.455 222.937C318.442 225.425 311.452 224.41 307.808 220.585C298.623 210.939 312.219 184.99 317.568 174.775V174.78Z" fill="#FFD1AB"/>
<path d="M318.042 179.451C318.837 176.264 321.122 173.697 323.333 171.272C324.304 170.205 325.274 169.134 326.245 168.067C326.995 167.238 328.033 166.33 329.088 166.702C329.686 166.911 330.075 167.486 330.386 168.039C332.541 171.881 333.133 176.568 331.993 180.822C331.587 182.339 330.967 183.817 330.843 185.385C330.741 186.643 330.921 188.059 330.103 189.018C329.336 187.106 330.024 184.832 329.206 182.948C328.676 181.73 327.559 180.799 327.232 179.513C327.023 178.701 327.159 177.838 327.08 177.003C326.876 174.927 325.201 173.082 323.153 172.693" fill="#F19D73"/>
<path d="M314.595 188.849C315.723 186.869 317.365 184.607 319.633 184.849C320.908 184.985 321.974 185.961 322.572 187.095C323.17 188.228 323.373 189.526 323.565 190.801C323.695 191.658 323.824 192.538 323.627 193.379C323.373 194.45 322.628 195.325 321.985 196.222C318.769 200.729 317.918 206.494 315.345 211.396C315.08 211.898 314.758 212.428 314.239 212.648C313.269 213.066 312.225 212.225 311.599 211.373C309.286 208.243 308.654 204.085 309.303 200.249C309.952 196.413 311.779 192.865 313.985 189.661" fill="#F19D73"/>
<path d="M314.053 190.141C316.157 189.396 318.741 190.479 319.678 192.504C320.202 193.632 320.236 194.924 320.084 196.16C319.841 198.106 319.159 199.967 318.476 201.806C317.427 204.638 316.377 207.47 315.328 210.307C314.967 211.283 314.312 212.451 313.28 212.332C312.434 212.236 311.977 211.323 311.667 210.533C311.164 209.241 310.662 207.949 310.155 206.657C309.647 205.354 309.133 204.012 309.179 202.613C309.212 201.586 309.545 200.599 309.873 199.623C310.313 198.314 310.758 197.011 311.198 195.703C311.785 193.965 312.423 192.154 313.76 190.902" fill="#D0785C"/>
<path d="M148.657 146.243C145.797 136.946 143.393 129.128 139.946 129.1C134.875 129.06 126.976 145.898 130.643 160.063C132.55 167.424 136.353 169.331 136.669 177.533C136.985 185.662 133.481 189.842 136.02 192.877C138.525 195.878 145.588 196.154 149.864 193.063C160.663 185.261 152.048 157.259 148.657 146.243Z" fill="#FFD1AB"/>
<path d="M147.337 150.75C147.134 147.472 145.362 144.528 143.636 141.735C142.874 140.506 142.118 139.282 141.357 138.052C140.77 137.098 139.913 136.015 138.807 136.19C138.181 136.286 137.69 136.783 137.284 137.268C134.457 140.647 133.018 145.148 133.357 149.537C133.475 151.105 133.814 152.668 133.65 154.23C133.521 155.482 133.086 156.848 133.712 157.936C134.818 156.199 134.553 153.835 135.71 152.132C136.454 151.032 137.724 150.315 138.282 149.114C138.638 148.352 138.66 147.484 138.891 146.671C139.467 144.669 141.458 143.163 143.54 143.151" fill="#F19D73"/>
<path d="M149.001 160.616C148.257 158.461 147.055 155.934 144.781 155.759C143.501 155.657 142.276 156.419 141.481 157.429C140.685 158.438 140.251 159.674 139.828 160.886C139.546 161.704 139.258 162.545 139.298 163.408C139.348 164.508 139.924 165.506 140.386 166.505C142.722 171.525 142.502 177.347 144.138 182.638C144.307 183.18 144.522 183.761 144.996 184.077C145.876 184.663 147.055 184.031 147.828 183.309C150.677 180.658 152.059 176.687 152.121 172.795C152.183 168.902 151.044 165.083 149.458 161.53" fill="#F19D73"/>
<path d="M149.295 161.987C147.365 160.87 144.623 161.462 143.331 163.278C142.609 164.288 142.338 165.557 142.26 166.798C142.141 168.756 142.474 170.713 142.807 172.642C143.32 175.621 143.828 178.599 144.341 181.572C144.516 182.599 144.945 183.868 145.983 183.941C146.829 184.003 147.45 183.185 147.895 182.463C148.629 181.284 149.357 180.105 150.09 178.926C150.829 177.742 151.579 176.512 151.794 175.13C151.952 174.115 151.805 173.082 151.658 172.067C151.461 170.702 151.269 169.337 151.072 167.972C150.812 166.155 150.519 164.26 149.43 162.782" fill="#D0785C"/>
<path d="M177.122 46.7275C163.306 58.3931 152.897 78.2776 149.518 96.7518C147.007 110.482 150.099 114.041 146.499 137.288C143.492 156.704 140.525 159.48 140.028 173.943C139.916 177.187 139.949 180.492 143.91 209.306C147.126 232.711 148.779 244.489 150.81 248.551C157.478 261.846 163.78 261.023 175.39 280.033C183.604 293.47 181.297 295.264 186.606 300.301C199.232 312.282 222.786 312.079 239.22 305.045C247.423 301.536 243.851 300.6 273.498 278.109C283.879 270.235 287.128 268.215 291.405 262.783C297.633 254.863 299.275 248.286 303.912 232.164C316.369 188.875 317.909 189.901 317.712 181.276C317.373 166.474 312.832 163.479 314.259 147.639C315.382 135.184 318.772 130.609 320.73 121.335C320.73 121.335 325.87 96.9549 311.675 70.8822C289.475 30.1036 213.81 15.7416 177.117 46.7332L177.122 46.7275Z" fill="#FFD1AB"/>
<path d="M141.447 129.743C141.43 121.699 141.831 92.5573 152.567 66.9303C154.874 61.419 159.41 52.416 169.988 35.3238C172.03 32.0295 174.09 28.7013 176.786 25.9147C182.62 19.8845 190.834 16.9173 198.749 14.1363C212.165 9.42609 225.587 4.71023 239.002 7.62939e-06C238.647 1.94051 238.286 3.88665 237.93 5.82714C247.245 4.4169 256.909 5.44356 265.721 8.7661C272.254 11.2312 279.842 14.8696 285.67 11.0281C284.903 11.925 284.135 12.8276 283.362 13.7245C288.874 14.2999 293.027 18.7958 296.767 22.8855C307.232 34.331 318.707 44.8571 331.012 54.3001C327.525 54.0858 324.039 53.877 320.552 53.6627C323.678 61.058 329.189 67.3646 331.536 75.0477C333.071 80.0625 333.161 85.3876 333.24 90.6281C333.432 103.112 333.618 115.601 333.173 128.079C332.969 133.753 332.637 139.428 332.168 145.086C331.655 151.325 330.967 157.62 328.8 163.493C323.621 166.657 319.762 171.92 318.301 177.809C314.369 168.665 313.105 158.393 314.707 148.567C316.981 134.628 324.851 120.96 321.613 107.213C320.902 104.189 319.666 101.318 318.437 98.4634C315.379 91.367 312.327 84.2707 309.269 77.1743C307.87 78.5563 309.049 81.4502 311.012 81.4558C308.84 82.7307 305.974 81.8845 303.994 80.3333C302.008 78.782 300.586 76.6384 298.781 74.8784C294.877 71.0651 289.467 69.2882 284.265 67.6354C277.845 65.5934 271.419 63.557 264.999 61.5149C264.548 68.9723 269.761 76.4015 276.925 78.5169C269.828 76.7738 263.132 73.4231 257.473 68.7918C254.404 66.2759 251.453 63.2918 247.6 62.3554C245.298 61.797 242.844 62.0283 240.588 61.3006C237.84 60.4149 235.736 58.2262 233.231 56.7991C228.012 53.8263 221.615 54.3622 215.612 54.3904C206.648 54.4355 197.677 53.1381 189.085 50.5601C187.759 50.1596 186.371 49.7309 185.012 50.0017C183.652 50.2725 182.535 51.2089 181.48 52.1114C176.25 56.596 170.609 61.876 170.282 68.758C169.159 67.6128 168.031 66.4677 166.908 65.3226C163.923 75.8656 161.424 86.544 159.427 97.3183C159.043 95.327 157.921 93.488 156.33 92.2301C154.79 99.428 153.266 106.694 151.777 114.027C150.028 122.635 148.347 131.17 146.733 139.626C146.011 137.651 145.018 135.412 143.63 133.06C142.908 131.835 142.164 130.73 141.436 129.737L141.447 129.743Z" fill="#1D0C0D"/>
<path d="M284.835 163.792C285.495 167.323 281.405 171.114 278.042 172.704C271.492 175.807 262.415 173.088 259.222 167.187C258.776 166.364 256.852 162.534 258.517 159.691C261.072 155.313 269.997 156.893 272.796 157.389C276.243 157.998 284.011 159.375 284.835 163.792V163.792Z" fill="#1D0C0D"/>
<path d="M248.226 161.456C251.29 159.803 259.718 155.77 270.765 157.118C284.993 158.85 293.337 168.254 295.238 170.516" stroke="black" stroke-width="2" stroke-miterlimit="10"/>
<path d="M274.186 160.532C274.345 159.151 273.014 157.864 271.213 157.656C269.412 157.448 267.822 158.398 267.662 159.778C267.503 161.158 268.834 162.446 270.635 162.654C272.437 162.862 274.026 161.912 274.186 160.532Z" fill="#E6E6E6"/>
<path d="M199.144 153.863C200.126 157.321 196.397 161.468 193.198 163.357C186.958 167.046 177.672 165.168 173.954 159.583C173.435 158.805 171.173 155.167 172.566 152.182C174.71 147.591 183.742 148.347 186.575 148.589C190.061 148.883 197.92 149.543 199.15 153.863H199.144Z" fill="#1D0C0D"/>
<path d="M162.479 154.879C165.379 152.95 173.401 148.172 184.527 148.499C198.856 148.922 208.018 157.524 210.117 159.6" stroke="black" stroke-width="2" stroke-miterlimit="10"/>
<path d="M188.779 152.317C188.939 150.937 187.608 149.649 185.806 149.441C184.005 149.233 182.415 150.183 182.256 151.564C182.096 152.944 183.427 154.231 185.229 154.44C187.03 154.648 188.62 153.697 188.779 152.317Z" fill="#E6E6E6"/>
<path d="M212.244 188.245L210.117 194.873C210.117 194.873 201.83 193.988 199.302 202.387C196.775 210.787 203.404 209.461 203.404 209.461C203.404 209.461 212.244 210.347 215.336 214.764C218.427 219.18 230.365 222.717 236.108 217.855C241.851 212.992 248.221 212.112 248.221 212.112C248.221 212.112 258.206 203.713 244.063 195.759L242.297 188.245" stroke="#F19D73" stroke-width="3" stroke-miterlimit="10"/>
<path d="M248.226 135.214C247.138 139.609 246.043 143.997 244.954 148.392C244.954 148.392 277.659 137.973 301.969 156.701V148.392C298.177 144.443 294.522 141.797 291.802 140.077C287.876 137.601 275.148 129.816 259.098 132.123C254.381 132.8 250.647 134.165 248.226 135.214Z" fill="#1D0C0D"/>
<path d="M210.157 130.312C210.343 134.836 210.529 139.355 210.709 143.879C210.709 143.879 180.769 127.091 153.187 140.551L154.857 132.411C159.365 129.308 163.478 127.447 166.49 126.313C170.834 124.677 184.871 119.611 200.131 125.1C204.617 126.713 208.002 128.801 210.157 130.318V130.312Z" fill="#1D0C0D"/>
<path d="M179.252 236.651C189.689 243.956 201.406 249.676 213.925 252.062C226.444 254.448 239.803 253.354 251.239 247.735C256.7 245.05 261.992 241.287 268.074 241.146C264.203 241.626 257.755 242.229 249.761 241.97C235.702 241.507 232.757 238.884 219.68 239.02C210.89 239.11 209.66 240.323 199.652 240.182C192.318 240.08 186.304 239.336 182.276 238.698" fill="white"/>
<path d="M178.829 237.384C189.04 244.514 200.476 250.172 212.735 252.688C224.898 255.181 237.84 254.47 249.321 249.546C255.436 246.923 261.18 242.207 268.079 241.993V240.3C262.285 241.017 256.435 241.299 250.601 241.146C244.768 240.994 239.425 240.255 233.857 239.33C228.289 238.405 222.952 238.016 217.429 238.224C212.724 238.399 208.075 239.212 203.37 239.324C196.402 239.494 189.395 238.969 182.518 237.886C181.452 237.717 180.995 239.347 182.067 239.516C188.199 240.481 194.399 241 200.611 241.039C203.341 241.056 206.066 240.955 208.786 240.678C210.958 240.458 213.124 240.171 215.302 240.03C220.859 239.657 226.45 239.872 231.95 240.729C237.451 241.586 242.353 242.449 247.657 242.726C254.466 243.081 261.315 242.827 268.085 241.993C269.134 241.863 269.202 240.266 268.085 240.3C262.031 240.486 256.892 243.91 251.673 246.579C246.19 249.382 240.204 251.159 234.1 251.926C221.733 253.489 209.198 251.091 197.824 246.173C191.438 243.408 185.39 239.905 179.692 235.923C178.795 235.297 177.948 236.763 178.84 237.384H178.829Z" fill="#F19D73"/>
</g>
<defs>
<clipPath id="clip0_44_421">
<rect width="426" height="624" fill="white"/>
</clipPath>
</defs>
</svg>
