<svg width="353" height="176" viewBox="0 0 353 176" fill="none" xmlns="http://www.w3.org/2000/svg">
<rect x="115" y="153" width="238" height="22" fill="#48AD7E"/>
<path d="M46.241 171L47.201 167.62V165.08L48.681 164.48L51.281 156.86H56.461L59.681 165.82L61.221 168.66V171H57.681L56.681 167.8H50.861L50.001 171H46.241ZM52.181 164.72H55.581L54.061 160.14H53.641L52.181 164.72ZM62.6321 171V164.74L62.2121 162.74L62.6321 161.54H65.3521L65.7521 162C65.7521 162 65.8454 161.947 66.0321 161.84C66.2188 161.72 66.4788 161.607 66.8121 161.5C67.1588 161.393 67.5588 161.34 68.0121 161.34C68.2788 161.34 68.5454 161.36 68.8121 161.4C69.0788 161.44 69.2854 161.493 69.4321 161.56L70.7321 162.66L69.4321 165.22L66.7921 164.12L66.1921 164.32V171H62.6321ZM75.3885 171.2C74.4818 171.2 73.7552 170.933 73.2085 170.4C72.6618 169.867 72.3885 169.193 72.3885 168.38V164.02H70.9285V162.12L72.1885 161.14L73.6085 158.66H75.9685V161.56H78.7685V164.16H75.9685V168.44L78.7685 168.42V170.6C78.7685 170.6 78.6085 170.653 78.2885 170.76C77.9818 170.853 77.5752 170.947 77.0685 171.04C76.5618 171.147 76.0018 171.2 75.3885 171.2ZM91.606 171.2C90.966 171.2 90.4527 171.14 90.066 171.02C89.6927 170.913 89.4193 170.807 89.246 170.7C89.0727 170.58 88.986 170.52 88.986 170.52V171.02H85.386V160.06L84.966 158.06L85.386 156.86H88.986V160.08L88.786 162.34L88.986 162.44C89.2527 162.187 89.5793 161.947 89.966 161.72C90.366 161.48 90.9127 161.36 91.606 161.36C92.7927 161.36 93.7193 161.74 94.386 162.5C95.066 163.26 95.406 164.46 95.406 166.1C95.406 167.327 95.2327 168.32 94.886 169.08C94.5527 169.827 94.0993 170.367 93.526 170.7C92.9527 171.033 92.3127 171.2 91.606 171.2ZM89.906 168.46C90.426 168.46 90.8393 168.28 91.146 167.92C91.4527 167.547 91.606 166.993 91.606 166.26C91.606 165.54 91.4793 165.02 91.226 164.7C90.9727 164.367 90.5993 164.2 90.106 164.2L88.986 164.62V168.2C88.986 168.2 89.0527 168.247 89.186 168.34C89.3327 168.42 89.5727 168.46 89.906 168.46ZM97.5337 175.86L94.7137 174.86L95.5137 171.88L98.3137 172.68C98.887 172.68 99.3003 172.527 99.5537 172.22C99.8203 171.927 100.02 171.513 100.154 170.98H98.0937L95.8937 164.14L95.5137 161.54H99.3137L100.414 168.14H100.814L101.914 161.54H105.714C105.714 161.54 105.667 161.753 105.574 162.18C105.494 162.593 105.374 163.147 105.214 163.84C105.067 164.533 104.887 165.3 104.674 166.14C104.474 166.967 104.26 167.807 104.034 168.66C103.807 169.5 103.574 170.273 103.334 170.98C102.974 172.087 102.54 173 102.034 173.72C101.54 174.44 100.934 174.973 100.214 175.32C99.4937 175.68 98.6003 175.86 97.5337 175.86ZM109.104 165.6L106.904 163.4L109.104 161.2L111.304 163.4L109.104 165.6ZM109.104 171.6L106.904 169.4L109.104 167.2L111.304 169.4L109.104 171.6Z" fill="#0A0A0A"/>
<path d="M125.095 171.2C124.189 171.2 123.309 171.1 122.455 170.9C121.602 170.687 120.829 170.313 120.135 169.78C119.455 169.247 118.915 168.507 118.515 167.56C118.115 166.613 117.915 165.4 117.915 163.92C117.915 162.547 118.115 161.393 118.515 160.46C118.915 159.527 119.449 158.78 120.115 158.22C120.782 157.66 121.509 157.26 122.295 157.02C123.095 156.767 123.895 156.64 124.695 156.64C125.375 156.64 126.035 156.693 126.675 156.8C127.329 156.907 127.802 157.027 128.095 157.16L130.315 158.98L128.515 161.88L125.095 160.12C124.149 160.12 123.349 160.433 122.695 161.06C122.042 161.673 121.715 162.627 121.715 163.92C121.715 164.84 121.875 165.587 122.195 166.16C122.529 166.733 122.982 167.153 123.555 167.42C124.129 167.687 124.782 167.82 125.515 167.82C126.289 167.82 126.949 167.76 127.495 167.64C128.042 167.507 128.522 167.353 128.935 167.18C129.349 166.993 129.742 166.813 130.115 166.64V170C129.649 170.293 129.029 170.567 128.255 170.82C127.482 171.073 126.429 171.2 125.095 171.2ZM134.802 171.2C134.229 171.2 133.695 171.12 133.202 170.96C132.722 170.787 132.335 170.493 132.042 170.08C131.749 169.667 131.602 169.093 131.602 168.36C131.602 167.693 131.769 167.14 132.102 166.7C132.435 166.26 132.889 165.933 133.462 165.72C134.035 165.507 134.682 165.4 135.402 165.4C136.095 165.4 136.615 165.48 136.962 165.64C137.309 165.787 137.609 165.94 137.862 166.1L138.002 165.98C138.002 165.58 137.969 165.247 137.902 164.98C137.835 164.713 137.682 164.513 137.442 164.38C137.202 164.233 136.829 164.16 136.322 164.16C135.829 164.16 135.302 164.207 134.742 164.3C134.195 164.38 133.689 164.487 133.222 164.62C132.769 164.74 132.429 164.86 132.202 164.98V161.98C132.615 161.833 133.202 161.7 133.962 161.58C134.735 161.447 135.682 161.38 136.802 161.38C138.002 161.38 138.949 161.533 139.642 161.84C140.349 162.133 140.855 162.567 141.162 163.14C141.469 163.7 141.622 164.373 141.622 165.16V167.82L142.022 169.84L141.622 171.02H138.202V170.04L138.002 169.94C137.895 170.047 137.709 170.2 137.442 170.4C137.175 170.6 136.822 170.787 136.382 170.96C135.942 171.12 135.415 171.2 134.802 171.2ZM136.502 168.58C136.862 168.58 137.169 168.547 137.422 168.48C137.689 168.413 137.882 168.353 138.002 168.3V167.92C138.002 167.747 137.875 167.58 137.622 167.42C137.382 167.26 137.002 167.18 136.482 167.18C135.762 167.18 135.402 167.433 135.402 167.94C135.402 168.153 135.482 168.313 135.642 168.42C135.802 168.527 136.089 168.58 136.502 168.58ZM144.038 171L144.018 160.04L143.618 158.04L144.038 156.84H147.638V171H144.038ZM150.054 171L150.034 160.04L149.634 158.04L150.054 156.84H153.654V171H150.054ZM157.85 160.98L155.31 158.42L157.85 155.88L160.39 158.42L157.85 160.98ZM156.05 171V164.38L155.63 162.78L156.03 161.56H159.65V171H156.05ZM165.789 171.2C164.816 171.2 163.956 171.1 163.209 170.9C162.463 170.7 161.883 170.493 161.469 170.28V167.5C162.016 167.74 162.576 167.927 163.149 168.06C163.736 168.193 164.263 168.287 164.729 168.34C165.196 168.38 165.529 168.4 165.729 168.4C165.956 168.4 166.116 168.367 166.209 168.3C166.303 168.22 166.349 168.127 166.349 168.02C166.349 167.873 166.229 167.753 165.989 167.66C165.749 167.553 165.296 167.42 164.629 167.26C164.083 167.127 163.549 166.96 163.029 166.76C162.523 166.547 162.103 166.253 161.769 165.88C161.449 165.507 161.289 165.007 161.289 164.38C161.289 163.607 161.469 163 161.829 162.56C162.189 162.12 162.703 161.813 163.369 161.64C164.036 161.453 164.816 161.36 165.709 161.36C166.216 161.36 166.689 161.387 167.129 161.44C167.569 161.493 167.883 161.533 168.069 161.56L169.929 162.76L169.029 164.9L165.529 164.14C165.103 164.14 164.889 164.28 164.889 164.56C164.889 164.853 165.196 165.073 165.809 165.22C166.289 165.327 166.783 165.447 167.289 165.58C167.796 165.7 168.256 165.86 168.669 166.06C169.096 166.26 169.436 166.527 169.689 166.86C169.956 167.193 170.089 167.633 170.089 168.18C170.089 169.193 169.723 169.953 168.989 170.46C168.269 170.953 167.203 171.2 165.789 171.2ZM175.349 171.2C174.443 171.2 173.716 170.933 173.169 170.4C172.623 169.867 172.349 169.193 172.349 168.38V164.02H170.889V162.12L172.149 161.14L173.569 158.66H175.929V161.56H178.729V164.16H175.929V168.44L178.729 168.42V170.6C178.729 170.6 178.569 170.653 178.249 170.76C177.943 170.853 177.536 170.947 177.029 171.04C176.523 171.147 175.963 171.2 175.349 171.2ZM183.122 171.2C182.549 171.2 182.016 171.12 181.522 170.96C181.042 170.787 180.656 170.493 180.362 170.08C180.069 169.667 179.922 169.093 179.922 168.36C179.922 167.693 180.089 167.14 180.422 166.7C180.756 166.26 181.209 165.933 181.782 165.72C182.356 165.507 183.002 165.4 183.722 165.4C184.416 165.4 184.936 165.48 185.282 165.64C185.629 165.787 185.929 165.94 186.182 166.1L186.322 165.98C186.322 165.58 186.289 165.247 186.222 164.98C186.156 164.713 186.002 164.513 185.762 164.38C185.522 164.233 185.149 164.16 184.642 164.16C184.149 164.16 183.622 164.207 183.062 164.3C182.516 164.38 182.009 164.487 181.542 164.62C181.089 164.74 180.749 164.86 180.522 164.98V161.98C180.936 161.833 181.522 161.7 182.282 161.58C183.056 161.447 184.002 161.38 185.122 161.38C186.322 161.38 187.269 161.533 187.962 161.84C188.669 162.133 189.176 162.567 189.482 163.14C189.789 163.7 189.942 164.373 189.942 165.16V167.82L190.342 169.84L189.942 171.02H186.522V170.04L186.322 169.94C186.216 170.047 186.029 170.2 185.762 170.4C185.496 170.6 185.142 170.787 184.702 170.96C184.262 171.12 183.736 171.2 183.122 171.2ZM184.822 168.58C185.182 168.58 185.489 168.547 185.742 168.48C186.009 168.413 186.202 168.353 186.322 168.3V167.92C186.322 167.747 186.196 167.58 185.942 167.42C185.702 167.26 185.322 167.18 184.802 167.18C184.082 167.18 183.722 167.433 183.722 167.94C183.722 168.153 183.802 168.313 183.962 168.42C184.122 168.527 184.409 168.58 184.822 168.58ZM202.143 171.2C201.41 171.2 200.717 171.133 200.063 171C199.41 170.853 198.843 170.68 198.363 170.48C197.883 170.28 197.53 170.093 197.303 169.92V166.34C197.943 166.7 198.75 167.04 199.723 167.36C200.697 167.667 201.777 167.82 202.963 167.82C203.443 167.82 203.797 167.76 204.023 167.64C204.263 167.507 204.383 167.28 204.383 166.96C204.383 166.613 204.117 166.327 203.583 166.1C203.063 165.86 202.237 165.567 201.103 165.22C200.223 164.94 199.47 164.633 198.843 164.3C198.23 163.953 197.757 163.527 197.423 163.02C197.103 162.5 196.943 161.84 196.943 161.04C196.943 160.213 197.157 159.467 197.583 158.8C198.01 158.133 198.677 157.607 199.583 157.22C200.49 156.833 201.65 156.64 203.063 156.64C203.49 156.64 203.943 156.66 204.423 156.7C204.917 156.727 205.31 156.767 205.603 156.82L207.863 158.48L207.083 160.92L202.343 159.62C201.797 159.62 201.39 159.733 201.123 159.96C200.87 160.187 200.743 160.46 200.743 160.78C200.743 161.167 200.963 161.473 201.403 161.7C201.843 161.927 202.477 162.153 203.303 162.38C204.61 162.74 205.623 163.14 206.343 163.58C207.063 164.02 207.57 164.52 207.863 165.08C208.157 165.627 208.303 166.247 208.303 166.94C208.303 168.22 207.79 169.253 206.763 170.04C205.737 170.813 204.197 171.2 202.143 171.2ZM213.767 171.2C212.861 171.2 212.134 170.933 211.587 170.4C211.041 169.867 210.767 169.193 210.767 168.38V164.02H209.307V162.12L210.567 161.14L211.987 158.66H214.347V161.56H217.147V164.16H214.347V168.44L217.147 168.42V170.6C217.147 170.6 216.987 170.653 216.667 170.76C216.361 170.853 215.954 170.947 215.447 171.04C214.941 171.147 214.381 171.2 213.767 171.2ZM223.54 171.2C222.514 171.2 221.6 171.047 220.8 170.74C220 170.433 219.374 169.92 218.92 169.2C218.467 168.48 218.24 167.507 218.24 166.28C218.24 165.4 218.387 164.647 218.68 164.02C218.987 163.393 219.394 162.887 219.9 162.5C220.407 162.1 220.974 161.813 221.6 161.64C222.227 161.453 222.874 161.36 223.54 161.36C224.687 161.36 225.567 161.473 226.18 161.7C226.807 161.927 227.22 162.107 227.42 162.24L228.42 165.42L228.02 166.66H221.82C221.914 167.153 222.16 167.567 222.56 167.9C222.96 168.233 223.62 168.4 224.54 168.4C225.26 168.4 225.88 168.32 226.4 168.16C226.92 168 227.327 167.86 227.62 167.74V170.42C227.22 170.633 226.64 170.82 225.88 170.98C225.134 171.127 224.354 171.2 223.54 171.2ZM221.84 165.38L224.6 164.98L224.42 164.12C224.327 164.067 224.187 164.027 224 164C223.827 163.973 223.674 163.96 223.54 163.96C223.167 163.96 222.854 164.04 222.6 164.2C222.36 164.36 222.174 164.553 222.04 164.78C221.92 164.993 221.854 165.193 221.84 165.38ZM230.353 171V164.52L229.293 162.52L230.353 161.56C230.286 161.333 230.233 161.033 230.193 160.66C230.166 160.273 230.153 159.96 230.153 159.72C230.153 158.96 230.326 158.293 230.673 157.72C231.033 157.147 231.526 156.7 232.153 156.38C232.779 156.047 233.486 155.88 234.273 155.88C234.646 155.88 235.039 155.9 235.453 155.94C235.879 155.967 236.246 156.02 236.553 156.1L238.693 157.32L237.153 160.1L234.853 158.7C234.399 158.7 234.066 158.867 233.853 159.2C233.639 159.52 233.533 159.88 233.533 160.28C233.533 160.573 233.579 160.833 233.673 161.06C233.766 161.287 233.859 161.453 233.953 161.56H237.153V163.96H233.953V167.76L234.153 169.78L233.953 171H230.353ZM240.896 171.2C240.322 171.2 239.789 171.12 239.296 170.96C238.816 170.787 238.429 170.493 238.136 170.08C237.842 169.667 237.696 169.093 237.696 168.36C237.696 167.693 237.862 167.14 238.196 166.7C238.529 166.26 238.982 165.933 239.556 165.72C240.129 165.507 240.776 165.4 241.496 165.4C242.189 165.4 242.709 165.48 243.056 165.64C243.402 165.787 243.702 165.94 243.956 166.1L244.096 165.98C244.096 165.58 244.062 165.247 243.996 164.98C243.929 164.713 243.776 164.513 243.536 164.38C243.296 164.233 242.922 164.16 242.416 164.16C241.922 164.16 241.396 164.207 240.836 164.3C240.289 164.38 239.782 164.487 239.316 164.62C238.862 164.74 238.522 164.86 238.296 164.98V161.98C238.709 161.833 239.296 161.7 240.056 161.58C240.829 161.447 241.776 161.38 242.896 161.38C244.096 161.38 245.042 161.533 245.736 161.84C246.442 162.133 246.949 162.567 247.256 163.14C247.562 163.7 247.716 164.373 247.716 165.16V167.82L248.116 169.84L247.716 171.02H244.296V170.04L244.096 169.94C243.989 170.047 243.802 170.2 243.536 170.4C243.269 170.6 242.916 170.787 242.476 170.96C242.036 171.12 241.509 171.2 240.896 171.2ZM242.596 168.58C242.956 168.58 243.262 168.547 243.516 168.48C243.782 168.413 243.976 168.353 244.096 168.3V167.92C244.096 167.747 243.969 167.58 243.716 167.42C243.476 167.26 243.096 167.18 242.576 167.18C241.856 167.18 241.496 167.433 241.496 167.94C241.496 168.153 241.576 168.313 241.736 168.42C241.896 168.527 242.182 168.58 242.596 168.58ZM250.112 171V164.98L249.712 162.78L250.332 161.56H253.312V162.42L253.492 162.54C253.639 162.407 253.839 162.253 254.092 162.08C254.359 161.893 254.679 161.727 255.052 161.58C255.425 161.433 255.845 161.36 256.312 161.36C257.512 161.36 258.412 161.7 259.012 162.38C259.612 163.06 259.912 164.013 259.912 165.24V167.78L260.332 169.78L259.912 171H256.312V165.76C256.312 165.253 256.199 164.867 255.972 164.6C255.759 164.32 255.419 164.18 254.952 164.18L253.712 164.56V171H250.112ZM264.061 160.98L261.521 158.42L264.061 155.88L266.601 158.42L264.061 160.98ZM262.261 171V164.38L261.841 162.78L262.241 161.56H265.861V171H262.261ZM272.7 171.2C271.674 171.2 270.76 171.047 269.96 170.74C269.16 170.433 268.534 169.92 268.08 169.2C267.627 168.48 267.4 167.507 267.4 166.28C267.4 165.4 267.547 164.647 267.84 164.02C268.147 163.393 268.554 162.887 269.06 162.5C269.567 162.1 270.134 161.813 270.76 161.64C271.387 161.453 272.034 161.36 272.7 161.36C273.847 161.36 274.727 161.473 275.34 161.7C275.967 161.927 276.38 162.107 276.58 162.24L277.58 165.42L277.18 166.66H270.98C271.074 167.153 271.32 167.567 271.72 167.9C272.12 168.233 272.78 168.4 273.7 168.4C274.42 168.4 275.04 168.32 275.56 168.16C276.08 168 276.487 167.86 276.78 167.74V170.42C276.38 170.633 275.8 170.82 275.04 170.98C274.294 171.127 273.514 171.2 272.7 171.2ZM271 165.38L273.76 164.98L273.58 164.12C273.487 164.067 273.347 164.027 273.16 164C272.987 163.973 272.834 163.96 272.7 163.96C272.327 163.96 272.014 164.04 271.76 164.2C271.52 164.36 271.334 164.553 271.2 164.78C271.08 164.993 271.014 165.193 271 165.38ZM287.257 171V160.04L283.257 160.24V156.84H294.957V160.24L290.857 160.04V167.8L291.077 169.8L290.857 171H287.257ZM297.556 171.2C296.983 171.2 296.449 171.12 295.956 170.96C295.476 170.787 295.089 170.493 294.796 170.08C294.503 169.667 294.356 169.093 294.356 168.36C294.356 167.693 294.523 167.14 294.856 166.7C295.189 166.26 295.643 165.933 296.216 165.72C296.789 165.507 297.436 165.4 298.156 165.4C298.849 165.4 299.369 165.48 299.716 165.64C300.063 165.787 300.363 165.94 300.616 166.1L300.756 165.98C300.756 165.58 300.723 165.247 300.656 164.98C300.589 164.713 300.436 164.513 300.196 164.38C299.956 164.233 299.583 164.16 299.076 164.16C298.583 164.16 298.056 164.207 297.496 164.3C296.949 164.38 296.443 164.487 295.976 164.62C295.523 164.74 295.183 164.86 294.956 164.98V161.98C295.369 161.833 295.956 161.7 296.716 161.58C297.489 161.447 298.436 161.38 299.556 161.38C300.756 161.38 301.703 161.533 302.396 161.84C303.103 162.133 303.609 162.567 303.916 163.14C304.223 163.7 304.376 164.373 304.376 165.16V167.82L304.776 169.84L304.376 171.02H300.956V170.04L300.756 169.94C300.649 170.047 300.463 170.2 300.196 170.4C299.929 170.6 299.576 170.787 299.136 170.96C298.696 171.12 298.169 171.2 297.556 171.2ZM299.256 168.58C299.616 168.58 299.923 168.547 300.176 168.48C300.443 168.413 300.636 168.353 300.756 168.3V167.92C300.756 167.747 300.629 167.58 300.376 167.42C300.136 167.26 299.756 167.18 299.236 167.18C298.516 167.18 298.156 167.433 298.156 167.94C298.156 168.153 298.236 168.313 298.396 168.42C298.556 168.527 298.843 168.58 299.256 168.58ZM310.672 171.2C309.699 171.2 308.839 171.1 308.092 170.9C307.346 170.7 306.766 170.493 306.352 170.28V167.5C306.899 167.74 307.459 167.927 308.032 168.06C308.619 168.193 309.146 168.287 309.612 168.34C310.079 168.38 310.412 168.4 310.612 168.4C310.839 168.4 310.999 168.367 311.092 168.3C311.186 168.22 311.232 168.127 311.232 168.02C311.232 167.873 311.112 167.753 310.872 167.66C310.632 167.553 310.179 167.42 309.512 167.26C308.966 167.127 308.432 166.96 307.912 166.76C307.406 166.547 306.986 166.253 306.652 165.88C306.332 165.507 306.172 165.007 306.172 164.38C306.172 163.607 306.352 163 306.712 162.56C307.072 162.12 307.586 161.813 308.252 161.64C308.919 161.453 309.699 161.36 310.592 161.36C311.099 161.36 311.572 161.387 312.012 161.44C312.452 161.493 312.766 161.533 312.952 161.56L314.812 162.76L313.912 164.9L310.412 164.14C309.986 164.14 309.772 164.28 309.772 164.56C309.772 164.853 310.079 165.073 310.692 165.22C311.172 165.327 311.666 165.447 312.172 165.58C312.679 165.7 313.139 165.86 313.552 166.06C313.979 166.26 314.319 166.527 314.572 166.86C314.839 167.193 314.972 167.633 314.972 168.18C314.972 169.193 314.606 169.953 313.872 170.46C313.152 170.953 312.086 171.2 310.672 171.2ZM318.912 171L316.172 164.16L315.772 161.56H319.572L320.872 167.8H321.272L322.792 161.56H326.772L328.272 167.8H328.672L329.992 161.56H333.772L333.372 164.16L330.612 171H326.412L324.972 164.56H324.572L323.112 171H318.912ZM336.971 160.98L334.431 158.42L336.971 155.88L339.511 158.42L336.971 160.98ZM335.171 171V164.38L334.751 162.78L335.151 161.56H338.771V171H335.171ZM341.011 171V164.98L340.611 162.78L341.231 161.56H344.211V162.42L344.391 162.54C344.537 162.407 344.737 162.253 344.991 162.08C345.257 161.893 345.577 161.727 345.951 161.58C346.324 161.433 346.744 161.36 347.211 161.36C348.411 161.36 349.311 161.7 349.911 162.38C350.511 163.06 350.811 164.013 350.811 165.24V167.78L351.231 169.78L350.811 171H347.211V165.76C347.211 165.253 347.097 164.867 346.871 164.6C346.657 164.32 346.317 164.18 345.851 164.18L344.611 164.56V171H341.011Z" fill="white"/>
<path d="M30.9836 2C20.8854 2 14.1826 16.2227 10.3586 23.9675C4.9643 34.8926 3.18824 46.4287 2.66994 58.5053C2.04099 73.1597 1.44537 88.5596 2.91402 103.173C4.32735 117.235 14.0744 137.206 27.2003 144.301C29.0402 145.295 29.6568 144.873 28.5428 143.202C25.7215 138.97 24.159 133.374 22.8678 128.496C22.7617 128.095 21.384 121.596 23.356 124.225C25.9403 127.671 26.126 132.925 27.1393 136.978C27.3849 137.961 30.0185 149.972 29.153 150.22C20.4911 152.695 11.104 142.592 2.42585 142.592" stroke="#0A0A0A" stroke-width="3" stroke-linecap="round"/>
</svg>
